<mxfile host="app.diagrams.net" modified="2023-04-02T11:43:22.320Z" agent="5.0 (Macintosh; Intel Mac OS X 10_15_7) AppleWebKit/537.36 (KHTML, like Gecko) Chrome/111.0.0.0 Safari/537.36" etag="wf8vixxUiVbI6gL5ToJx" version="20.7.4" type="github">
  <diagram id="GpkoE08ScGIsWNODuLT1" name="Page-1">
    <mxGraphModel dx="2380" dy="1547" grid="1" gridSize="10" guides="1" tooltips="1" connect="1" arrows="1" fold="1" page="0" pageScale="1" pageWidth="827" pageHeight="1169" math="0" shadow="0">
      <root>
        <mxCell id="0" />
        <mxCell id="1" parent="0" />
        <mxCell id="kom0WmJ6hGe8tiKmYwih-12" value="" style="edgeStyle=orthogonalEdgeStyle;rounded=0;orthogonalLoop=1;jettySize=auto;html=1;endArrow=block;endFill=0;dashed=1;exitX=0.5;exitY=0;exitDx=0;exitDy=0;" edge="1" parent="1" source="kom0WmJ6hGe8tiKmYwih-8" target="kom0WmJ6hGe8tiKmYwih-1">
          <mxGeometry relative="1" as="geometry">
            <Array as="points">
              <mxPoint x="-60" y="150" />
              <mxPoint x="-60" y="150" />
            </Array>
          </mxGeometry>
        </mxCell>
        <mxCell id="kom0WmJ6hGe8tiKmYwih-23" value="" style="edgeStyle=orthogonalEdgeStyle;rounded=0;orthogonalLoop=1;jettySize=auto;html=1;startArrow=diamond;startFill=1;endArrow=open;endFill=0;entryX=0.25;entryY=1;entryDx=0;entryDy=0;" edge="1" parent="1" source="kom0WmJ6hGe8tiKmYwih-22" target="kom0WmJ6hGe8tiKmYwih-6">
          <mxGeometry relative="1" as="geometry" />
        </mxCell>
        <mxCell id="kom0WmJ6hGe8tiKmYwih-34" value="" style="edgeStyle=orthogonalEdgeStyle;rounded=0;orthogonalLoop=1;jettySize=auto;html=1;startArrow=none;startFill=0;endArrow=block;endFill=0;entryX=0.5;entryY=1;entryDx=0;entryDy=0;dashed=1;exitX=0.5;exitY=0;exitDx=0;exitDy=0;" edge="1" parent="1" source="kom0WmJ6hGe8tiKmYwih-32" target="kom0WmJ6hGe8tiKmYwih-6">
          <mxGeometry relative="1" as="geometry">
            <mxPoint x="980" y="680" as="targetPoint" />
            <Array as="points">
              <mxPoint x="890" y="140" />
              <mxPoint x="890" y="140" />
            </Array>
          </mxGeometry>
        </mxCell>
        <mxCell id="kom0WmJ6hGe8tiKmYwih-43" value="UseCase" style="swimlane;startSize=0;fontSize=24;fillColor=#D5E8D4;" vertex="1" parent="1">
          <mxGeometry x="-160" y="120" width="1140" height="300" as="geometry">
            <mxRectangle x="-160" y="120" width="170" height="40" as="alternateBounds" />
          </mxGeometry>
        </mxCell>
        <mxCell id="kom0WmJ6hGe8tiKmYwih-8" value="AlarmEvent" style="rounded=0;whiteSpace=wrap;html=1;labelBackgroundColor=none;" vertex="1" parent="kom0WmJ6hGe8tiKmYwih-43">
          <mxGeometry x="40" y="40" width="120" height="60" as="geometry" />
        </mxCell>
        <mxCell id="kom0WmJ6hGe8tiKmYwih-17" value="AlarmEvent&lt;br&gt;Publisher" style="rounded=0;whiteSpace=wrap;html=1;labelBackgroundColor=none;" vertex="1" parent="kom0WmJ6hGe8tiKmYwih-43">
          <mxGeometry x="200" y="40" width="120" height="60" as="geometry" />
        </mxCell>
        <mxCell id="kom0WmJ6hGe8tiKmYwih-22" value="Problem&lt;br&gt;Monitor" style="rounded=0;whiteSpace=wrap;html=1;labelBackgroundColor=none;" vertex="1" parent="kom0WmJ6hGe8tiKmYwih-43">
          <mxGeometry x="600" y="120" width="120" height="60" as="geometry" />
        </mxCell>
        <mxCell id="kom0WmJ6hGe8tiKmYwih-81" value="AlarmEvent&lt;br&gt;Subscriber" style="rounded=0;whiteSpace=wrap;html=1;labelBackgroundColor=none;" vertex="1" parent="kom0WmJ6hGe8tiKmYwih-43">
          <mxGeometry x="360" y="40" width="120" height="60" as="geometry" />
        </mxCell>
        <mxCell id="kom0WmJ6hGe8tiKmYwih-82" value="" style="edgeStyle=orthogonalEdgeStyle;rounded=0;orthogonalLoop=1;jettySize=auto;html=1;startArrow=diamond;startFill=1;endArrow=open;endFill=0;entryX=0.75;entryY=1;entryDx=0;entryDy=0;" edge="1" parent="kom0WmJ6hGe8tiKmYwih-43" source="kom0WmJ6hGe8tiKmYwih-22" target="kom0WmJ6hGe8tiKmYwih-17">
          <mxGeometry relative="1" as="geometry">
            <mxPoint x="600" y="270" as="sourcePoint" />
            <mxPoint x="320" y="150" as="targetPoint" />
          </mxGeometry>
        </mxCell>
        <mxCell id="kom0WmJ6hGe8tiKmYwih-14" value="AlarmType" style="rounded=0;whiteSpace=wrap;html=1;labelBackgroundColor=none;" vertex="1" parent="kom0WmJ6hGe8tiKmYwih-43">
          <mxGeometry x="40" y="200" width="120" height="60" as="geometry" />
        </mxCell>
        <mxCell id="kom0WmJ6hGe8tiKmYwih-46" value="adapter.HTTP" style="swimlane;startSize=0;fontSize=24;fillColor=#D5E8D4;" vertex="1" parent="1">
          <mxGeometry x="-160" y="440" width="780" height="200" as="geometry">
            <mxRectangle x="-160" y="340" width="100" height="40" as="alternateBounds" />
          </mxGeometry>
        </mxCell>
        <mxCell id="kom0WmJ6hGe8tiKmYwih-37" value="Problem&lt;br&gt;Controller" style="rounded=0;whiteSpace=wrap;html=1;labelBackgroundColor=none;" vertex="1" parent="kom0WmJ6hGe8tiKmYwih-46">
          <mxGeometry x="600" y="30" width="120" height="60" as="geometry" />
        </mxCell>
        <mxCell id="kom0WmJ6hGe8tiKmYwih-87" value="" style="edgeStyle=orthogonalEdgeStyle;rounded=0;orthogonalLoop=1;jettySize=auto;html=1;fontSize=24;startArrow=diamond;startFill=1;endArrow=open;endFill=0;" edge="1" parent="kom0WmJ6hGe8tiKmYwih-46" source="kom0WmJ6hGe8tiKmYwih-36" target="kom0WmJ6hGe8tiKmYwih-86">
          <mxGeometry relative="1" as="geometry" />
        </mxCell>
        <mxCell id="kom0WmJ6hGe8tiKmYwih-36" value="Monitor&lt;br&gt;Controller" style="rounded=0;whiteSpace=wrap;html=1;labelBackgroundColor=none;" vertex="1" parent="kom0WmJ6hGe8tiKmYwih-46">
          <mxGeometry x="200" y="30" width="120" height="60" as="geometry" />
        </mxCell>
        <mxCell id="kom0WmJ6hGe8tiKmYwih-86" value="PubSub&lt;br&gt;SseRegistry" style="rounded=0;whiteSpace=wrap;html=1;labelBackgroundColor=none;" vertex="1" parent="kom0WmJ6hGe8tiKmYwih-46">
          <mxGeometry x="40" y="30" width="120" height="60" as="geometry" />
        </mxCell>
        <mxCell id="kom0WmJ6hGe8tiKmYwih-95" value="" style="edgeStyle=orthogonalEdgeStyle;rounded=0;orthogonalLoop=1;jettySize=auto;html=1;fontSize=24;startArrow=diamond;startFill=1;endArrow=open;endFill=0;entryX=0;entryY=0.5;entryDx=0;entryDy=0;" edge="1" parent="kom0WmJ6hGe8tiKmYwih-46" source="kom0WmJ6hGe8tiKmYwih-93" target="kom0WmJ6hGe8tiKmYwih-37">
          <mxGeometry relative="1" as="geometry" />
        </mxCell>
        <mxCell id="kom0WmJ6hGe8tiKmYwih-93" value="ProblemDto&lt;br&gt;Mapper" style="rounded=0;whiteSpace=wrap;html=1;labelBackgroundColor=none;" vertex="1" parent="kom0WmJ6hGe8tiKmYwih-46">
          <mxGeometry x="440" y="30" width="120" height="60" as="geometry" />
        </mxCell>
        <mxCell id="kom0WmJ6hGe8tiKmYwih-47" value="adapter.JPA" style="swimlane;startSize=0;fontSize=24;fillColor=#D5E8D4;" vertex="1" parent="1">
          <mxGeometry x="640" y="440" width="340" height="200" as="geometry">
            <mxRectangle x="640" y="440" width="180" height="40" as="alternateBounds" />
          </mxGeometry>
        </mxCell>
        <mxCell id="kom0WmJ6hGe8tiKmYwih-92" value="" style="edgeStyle=orthogonalEdgeStyle;rounded=0;orthogonalLoop=1;jettySize=auto;html=1;fontSize=24;startArrow=diamond;startFill=1;endArrow=open;endFill=0;" edge="1" parent="kom0WmJ6hGe8tiKmYwih-47" source="kom0WmJ6hGe8tiKmYwih-32" target="kom0WmJ6hGe8tiKmYwih-91">
          <mxGeometry relative="1" as="geometry" />
        </mxCell>
        <mxCell id="kom0WmJ6hGe8tiKmYwih-32" value="ProblemRepository&lt;br&gt;JpaAdapter" style="rounded=0;whiteSpace=wrap;html=1;labelBackgroundColor=none;" vertex="1" parent="kom0WmJ6hGe8tiKmYwih-47">
          <mxGeometry x="190" y="30" width="120" height="60" as="geometry" />
        </mxCell>
        <mxCell id="kom0WmJ6hGe8tiKmYwih-31" value="ProblemEntity&lt;br&gt;Repository" style="rounded=0;whiteSpace=wrap;html=1;labelBackgroundColor=none;" vertex="1" parent="kom0WmJ6hGe8tiKmYwih-47">
          <mxGeometry x="190" y="110" width="120" height="60" as="geometry" />
        </mxCell>
        <mxCell id="kom0WmJ6hGe8tiKmYwih-35" value="" style="edgeStyle=orthogonalEdgeStyle;rounded=0;orthogonalLoop=1;jettySize=auto;html=1;startArrow=diamond;startFill=1;endArrow=open;endFill=0;" edge="1" parent="kom0WmJ6hGe8tiKmYwih-47" source="kom0WmJ6hGe8tiKmYwih-32" target="kom0WmJ6hGe8tiKmYwih-31">
          <mxGeometry relative="1" as="geometry" />
        </mxCell>
        <mxCell id="kom0WmJ6hGe8tiKmYwih-30" value="ProblemEntity" style="rounded=0;whiteSpace=wrap;html=1;labelBackgroundColor=none;" vertex="1" parent="kom0WmJ6hGe8tiKmYwih-47">
          <mxGeometry x="30" y="110" width="120" height="60" as="geometry" />
        </mxCell>
        <mxCell id="kom0WmJ6hGe8tiKmYwih-91" value="ProblemEntity&lt;br&gt;Mapper" style="rounded=0;whiteSpace=wrap;html=1;labelBackgroundColor=none;" vertex="1" parent="kom0WmJ6hGe8tiKmYwih-47">
          <mxGeometry x="30" y="30" width="120" height="60" as="geometry" />
        </mxCell>
        <mxCell id="kom0WmJ6hGe8tiKmYwih-49" value="/problems" style="endArrow=classic;html=1;rounded=0;fontSize=12;entryX=0.5;entryY=1;entryDx=0;entryDy=0;" edge="1" parent="1" target="kom0WmJ6hGe8tiKmYwih-37">
          <mxGeometry width="50" height="50" relative="1" as="geometry">
            <mxPoint x="500" y="740" as="sourcePoint" />
            <mxPoint x="520" y="460" as="targetPoint" />
          </mxGeometry>
        </mxCell>
        <mxCell id="kom0WmJ6hGe8tiKmYwih-7" value="Problems DB" style="shape=cylinder3;whiteSpace=wrap;html=1;boundedLbl=1;backgroundOutline=1;size=15;labelBackgroundColor=none;" vertex="1" parent="1">
          <mxGeometry x="830" y="680" width="120" height="60" as="geometry" />
        </mxCell>
        <mxCell id="kom0WmJ6hGe8tiKmYwih-50" value="" style="edgeStyle=orthogonalEdgeStyle;rounded=0;orthogonalLoop=1;jettySize=auto;html=1;fontSize=12;startArrow=none;startFill=0;endArrow=open;endFill=0;exitX=0.5;exitY=1;exitDx=0;exitDy=0;" edge="1" parent="1" source="kom0WmJ6hGe8tiKmYwih-31" target="kom0WmJ6hGe8tiKmYwih-7">
          <mxGeometry relative="1" as="geometry" />
        </mxCell>
        <mxCell id="kom0WmJ6hGe8tiKmYwih-54" value="sse" style="endArrow=classic;html=1;rounded=0;fontSize=12;exitX=0.75;exitY=1;exitDx=0;exitDy=0;" edge="1" parent="1" source="kom0WmJ6hGe8tiKmYwih-36">
          <mxGeometry width="50" height="50" relative="1" as="geometry">
            <mxPoint x="500" y="500" as="sourcePoint" />
            <mxPoint x="130" y="740" as="targetPoint" />
          </mxGeometry>
        </mxCell>
        <mxCell id="kom0WmJ6hGe8tiKmYwih-55" value="/monitor" style="endArrow=classic;html=1;rounded=0;fontSize=12;entryX=0.25;entryY=1;entryDx=0;entryDy=0;" edge="1" parent="1" target="kom0WmJ6hGe8tiKmYwih-36">
          <mxGeometry width="50" height="50" relative="1" as="geometry">
            <mxPoint x="70" y="740" as="sourcePoint" />
            <mxPoint x="270" y="450" as="targetPoint" />
          </mxGeometry>
        </mxCell>
        <mxCell id="kom0WmJ6hGe8tiKmYwih-56" value="domain.alarm" style="swimlane;startSize=0;fontSize=24;fillColor=#D5E8D4;" vertex="1" parent="1">
          <mxGeometry x="-160" y="-100" width="520" height="200" as="geometry" />
        </mxCell>
        <mxCell id="kom0WmJ6hGe8tiKmYwih-1" value="Alarm" style="rounded=0;whiteSpace=wrap;html=1;labelBackgroundColor=none;" vertex="1" parent="kom0WmJ6hGe8tiKmYwih-56">
          <mxGeometry x="40" y="30" width="120" height="60" as="geometry" />
        </mxCell>
        <mxCell id="kom0WmJ6hGe8tiKmYwih-3" value="Alarm&lt;br&gt;Subscriber" style="rounded=0;whiteSpace=wrap;html=1;labelBackgroundColor=none;" vertex="1" parent="kom0WmJ6hGe8tiKmYwih-56">
          <mxGeometry x="360" y="30" width="120" height="60" as="geometry" />
        </mxCell>
        <mxCell id="kom0WmJ6hGe8tiKmYwih-2" value="Alarm&lt;br&gt;Publisher" style="rounded=0;whiteSpace=wrap;html=1;labelBackgroundColor=none;" vertex="1" parent="kom0WmJ6hGe8tiKmYwih-56">
          <mxGeometry x="200" y="30" width="120" height="60" as="geometry" />
        </mxCell>
        <mxCell id="kom0WmJ6hGe8tiKmYwih-57" value="domain.problem" style="swimlane;startSize=0;fontSize=24;fillColor=#D5E8D4;" vertex="1" parent="1">
          <mxGeometry x="640" y="-100" width="340" height="200" as="geometry" />
        </mxCell>
        <mxCell id="kom0WmJ6hGe8tiKmYwih-4" value="Problem" style="rounded=0;whiteSpace=wrap;html=1;labelBackgroundColor=none;" vertex="1" parent="kom0WmJ6hGe8tiKmYwih-57">
          <mxGeometry x="30" y="30" width="120" height="60" as="geometry" />
        </mxCell>
        <mxCell id="kom0WmJ6hGe8tiKmYwih-6" value="Problem&lt;br&gt;Repository" style="rounded=0;whiteSpace=wrap;html=1;labelBackgroundColor=none;" vertex="1" parent="kom0WmJ6hGe8tiKmYwih-57">
          <mxGeometry x="190" y="30" width="120" height="60" as="geometry" />
        </mxCell>
        <mxCell id="kom0WmJ6hGe8tiKmYwih-73" value="" style="edgeStyle=orthogonalEdgeStyle;rounded=0;orthogonalLoop=1;jettySize=auto;html=1;fontSize=24;startArrow=diamond;startFill=1;endArrow=open;endFill=0;entryX=0.5;entryY=1;entryDx=0;entryDy=0;" edge="1" parent="1" source="kom0WmJ6hGe8tiKmYwih-37" target="kom0WmJ6hGe8tiKmYwih-22">
          <mxGeometry relative="1" as="geometry">
            <mxPoint x="700" y="410" as="targetPoint" />
          </mxGeometry>
        </mxCell>
        <mxCell id="kom0WmJ6hGe8tiKmYwih-75" value="" style="edgeStyle=orthogonalEdgeStyle;orthogonalLoop=1;jettySize=auto;html=1;fontSize=24;startArrow=none;startFill=0;endArrow=block;endFill=0;entryX=0.5;entryY=1;entryDx=0;entryDy=0;exitX=0.5;exitY=0;exitDx=0;exitDy=0;rounded=0;dashed=1;" edge="1" parent="1" source="kom0WmJ6hGe8tiKmYwih-17" target="kom0WmJ6hGe8tiKmYwih-2">
          <mxGeometry relative="1" as="geometry" />
        </mxCell>
        <mxCell id="kom0WmJ6hGe8tiKmYwih-27" value="" style="edgeStyle=orthogonalEdgeStyle;rounded=0;orthogonalLoop=1;jettySize=auto;html=1;startArrow=none;startFill=0;endArrow=block;endFill=0;entryX=0.5;entryY=1;entryDx=0;entryDy=0;dashed=1;" edge="1" parent="1" source="kom0WmJ6hGe8tiKmYwih-22" target="kom0WmJ6hGe8tiKmYwih-5">
          <mxGeometry relative="1" as="geometry">
            <mxPoint x="660" y="480" as="targetPoint" />
          </mxGeometry>
        </mxCell>
        <mxCell id="kom0WmJ6hGe8tiKmYwih-80" value="domain.monitor" style="swimlane;startSize=0;fontSize=24;fillColor=#D5E8D4;" vertex="1" parent="1">
          <mxGeometry x="380" y="-100" width="240" height="200" as="geometry">
            <mxRectangle x="560" y="-320" width="220" height="40" as="alternateBounds" />
          </mxGeometry>
        </mxCell>
        <mxCell id="kom0WmJ6hGe8tiKmYwih-5" value="Monitor" style="rounded=0;whiteSpace=wrap;html=1;labelBackgroundColor=none;" vertex="1" parent="kom0WmJ6hGe8tiKmYwih-80">
          <mxGeometry x="60" y="30" width="120" height="60" as="geometry" />
        </mxCell>
        <mxCell id="kom0WmJ6hGe8tiKmYwih-84" value="" style="edgeStyle=orthogonalEdgeStyle;rounded=0;orthogonalLoop=1;jettySize=auto;html=1;dashed=1;fontSize=24;startArrow=none;startFill=0;endArrow=block;endFill=0;entryX=0.5;entryY=1;entryDx=0;entryDy=0;" edge="1" parent="1" source="kom0WmJ6hGe8tiKmYwih-81" target="kom0WmJ6hGe8tiKmYwih-3">
          <mxGeometry relative="1" as="geometry">
            <mxPoint x="260" y="130" as="targetPoint" />
          </mxGeometry>
        </mxCell>
        <mxCell id="kom0WmJ6hGe8tiKmYwih-89" value="" style="edgeStyle=orthogonalEdgeStyle;rounded=0;orthogonalLoop=1;jettySize=auto;html=1;fontSize=24;startArrow=diamond;startFill=1;endArrow=open;endFill=0;entryX=0.5;entryY=1;entryDx=0;entryDy=0;" edge="1" parent="1" source="kom0WmJ6hGe8tiKmYwih-36" target="kom0WmJ6hGe8tiKmYwih-81">
          <mxGeometry relative="1" as="geometry">
            <mxPoint x="260" y="400" as="targetPoint" />
            <Array as="points">
              <mxPoint x="260" y="320" />
              <mxPoint x="260" y="320" />
            </Array>
          </mxGeometry>
        </mxCell>
        <mxCell id="kom0WmJ6hGe8tiKmYwih-90" value="spring" style="swimlane;startSize=0;fontSize=24;" vertex="1" parent="1">
          <mxGeometry x="-380" y="120" width="200" height="520" as="geometry" />
        </mxCell>
        <mxCell id="kom0WmJ6hGe8tiKmYwih-9" value="ApplicationEvent" style="rounded=0;whiteSpace=wrap;html=1;labelBackgroundColor=none;" vertex="1" parent="kom0WmJ6hGe8tiKmYwih-90">
          <mxGeometry x="40" y="40" width="120" height="60" as="geometry" />
        </mxCell>
        <mxCell id="kom0WmJ6hGe8tiKmYwih-18" value="ApplicationEvent&lt;br&gt;Publisher" style="rounded=0;whiteSpace=wrap;html=1;labelBackgroundColor=none;" vertex="1" parent="kom0WmJ6hGe8tiKmYwih-90">
          <mxGeometry x="40" y="120" width="120" height="60" as="geometry" />
        </mxCell>
        <mxCell id="kom0WmJ6hGe8tiKmYwih-11" value="" style="edgeStyle=orthogonalEdgeStyle;rounded=0;orthogonalLoop=1;jettySize=auto;html=1;entryX=1;entryY=0.5;entryDx=0;entryDy=0;endArrow=block;endFill=0;" edge="1" parent="1" source="kom0WmJ6hGe8tiKmYwih-8" target="kom0WmJ6hGe8tiKmYwih-9">
          <mxGeometry relative="1" as="geometry">
            <mxPoint x="240" y="420" as="sourcePoint" />
          </mxGeometry>
        </mxCell>
        <mxCell id="kom0WmJ6hGe8tiKmYwih-19" value="" style="edgeStyle=orthogonalEdgeStyle;rounded=0;orthogonalLoop=1;jettySize=auto;html=1;endArrow=open;endFill=0;startArrow=diamond;startFill=1;entryX=1;entryY=0.5;entryDx=0;entryDy=0;exitX=0.5;exitY=1;exitDx=0;exitDy=0;" edge="1" parent="1" source="kom0WmJ6hGe8tiKmYwih-17" target="kom0WmJ6hGe8tiKmYwih-18">
          <mxGeometry relative="1" as="geometry" />
        </mxCell>
      </root>
    </mxGraphModel>
  </diagram>
</mxfile>
